<?xml version="1.0" encoding="UTF-8" standalone="no"?>
<svg
   width="1000"
   height="1200"
   viewBox="0 0 1000 1200"
   fill="none"
   version="1.1"
   id="svg11"
   sodipodi:docname="fossunited.svg"
   inkscape:version="1.3.2 (091e20ef0f, 2023-11-25, custom)"
   inkscape:export-filename="fossunited.png"
   inkscape:export-xdpi="467.15329"
   inkscape:export-ydpi="467.15329"
   xmlns:inkscape="http://www.inkscape.org/namespaces/inkscape"
   xmlns:sodipodi="http://sodipodi.sourceforge.net/DTD/sodipodi-0.dtd"
   xmlns="http://www.w3.org/2000/svg"
   xmlns:svg="http://www.w3.org/2000/svg">
  <defs
     id="defs11" />
  <sodipodi:namedview
     id="namedview11"
     pagecolor="#ffffff"
     bordercolor="#999999"
     borderopacity="1"
     inkscape:showpageshadow="0"
     inkscape:pageopacity="0"
     inkscape:pagecheckerboard="0"
     inkscape:deskcolor="#d1d1d1"
     inkscape:zoom="0.61922141"
     inkscape:cx="411"
     inkscape:cy="319.75639"
     inkscape:window-width="1366"
     inkscape:window-height="707"
     inkscape:window-x="0"
     inkscape:window-y="0"
     inkscape:window-maximized="1"
     inkscape:current-layer="svg11" />
  <g
     id="g11"
     transform="translate(89.4295,279.611)">
    <path
       d="M 149.374,330.746 H 100.43 V 91.1687 h 120.36 v 48.9443 h -71.416 v 46.277 h 71.416 v 48.944 h -71.416 z"
       fill="#ffffff"
       id="path1" />
    <path
       d="m 292.21,281.612 h 46.277 V 140.113 H 292.21 Z m -25.139,49.134 V 306.751 H 243.266 V 114.974 h 23.805 V 91.1687 h 96.555 v 23.8053 h 23.805 v 191.777 h -23.805 v 23.995 z M 244.599,91.9305 h 22.472 V 114.974 H 244.599 Z M 363.626,91.168 h 23.805 v 23.805 h -23.805 z m 0,215.582 h 23.805 v 23.234 h -23.805 z m -120.36,0 h 23.805 v 23.996 h -23.805 z"
       fill="#ffffff"
       id="path2" />
    <path
       d="M 530.26,330.746 H 409.9 v -49.134 h 95.221 V 235.334 H 433.705 V 211.529 H 409.9 v -96.555 h 23.805 V 91.1687 h 120.36 v 48.9443 h -95.221 v 46.277 h 71.416 v 23.806 h 23.805 v 96.555 H 530.26 Z M 411.233,91.9305 h 22.472 V 114.974 H 411.233 Z M 409.9,211.529 h 23.805 v 23.805 H 409.9 Z M 530.26,186.39 h 23.805 v 23.806 H 530.26 Z m 0,120.361 h 23.805 v 23.234 H 530.26 Z"
       fill="#ffffff"
       id="path3" />
    <path
       d="m 696.898,330.746 h -120.36 v -49.134 h 95.221 v -46.278 h -71.416 v -23.805 h -23.805 v -96.555 h 23.805 V 91.1687 h 120.36 v 48.9443 h -95.221 v 46.277 h 71.416 v 23.806 h 23.805 v 96.555 H 696.898 Z M 577.871,91.9305 h 22.472 v 23.0435 h -22.472 z m -1.333,119.5985 h 23.805 v 23.805 h -23.805 z m 120.36,-25.139 h 23.805 v 23.806 h -23.805 z m 0,120.361 h 23.805 v 23.234 h -23.805 z"
       fill="#ffffff"
       id="path4" />
    <path
       d="M 117.624,549.61 V 532.24 H 100.421 V 376.187 h 35.371 v 137.856 h 33.444 V 376.187 h 35.37 V 532.24 h -17.203 v 17.37 z m -17.203,-17.37 h 17.203 v 17.37 h -17.203 z m 86.982,0 h 17.203 v 16.819 h -17.203 z"
       fill="#ffffff"
       id="path5" />
    <path
       d="m 256.222,549.611 h -35.37 V 376.188 H 325.037 V 549.611 H 289.666 V 411.617 h -33.444 z"
       fill="#ffffff"
       id="path6" />
    <path
       d="M 376.644,549.61 H 341.273 V 376.187 h 35.371 z"
       fill="#ffffff"
       id="path7" />
    <path
       d="M 462.662,549.61 H 427.291 V 411.616 h -34.407 v -35.429 h 104.185 v 35.429 h -34.407 z"
       fill="#ffffff"
       id="path8" />
    <path
       d="M 600.294,549.611 H 513.312 V 376.188 h 86.982 v 35.429 h -51.611 v 33.499 h 51.611 v 35.429 h -51.611 v 33.499 h 51.611 z"
       fill="#ffffff"
       id="path9" />
    <path
       d="m 651.903,514.043 h 33.444 V 411.616 H 651.903 Z M 616.532,549.61 V 376.187 h 86.982 v 17.232 h 17.204 V 532.24 h -17.204 v 17.37 z"
       fill="#ffffff"
       id="path10" />
    <path
       d="M 805.141,16 H 16 v 608.778 h 789.141 z"
       stroke="#ffffff"
       stroke-width="31.9999"
       id="path11" />
  </g>
</svg>
