<?xml version="1.0" encoding="UTF-8" standalone="no"?>
<!-- Created with Inkscape (http://www.inkscape.org/) -->

<svg
   width="2000"
   height="2400"
   viewBox="0 0 529.16665 635"
   version="1.1"
   id="svg1"
   xml:space="preserve"
   inkscape:export-filename="bitmap.png"
   inkscape:export-xdpi="96"
   inkscape:export-ydpi="96"
   inkscape:version="1.3.2 (091e20ef0f, 2023-11-25, custom)"
   sodipodi:docname="mulearn-sponsor.svg"
   xmlns:inkscape="http://www.inkscape.org/namespaces/inkscape"
   xmlns:sodipodi="http://sodipodi.sourceforge.net/DTD/sodipodi-0.dtd"
   xmlns="http://www.w3.org/2000/svg"
   xmlns:svg="http://www.w3.org/2000/svg"><sodipodi:namedview
     id="namedview1"
     pagecolor="#ffffff"
     bordercolor="#999999"
     borderopacity="1"
     inkscape:showpageshadow="0"
     inkscape:pageopacity="0"
     inkscape:pagecheckerboard="0"
     inkscape:deskcolor="#d1d1d1"
     inkscape:document-units="mm"
     inkscape:zoom="0.10260121"
     inkscape:cx="-170.56329"
     inkscape:cy="1393.7457"
     inkscape:window-width="1366"
     inkscape:window-height="707"
     inkscape:window-x="0"
     inkscape:window-y="0"
     inkscape:window-maximized="1"
     inkscape:current-layer="layer1" /><defs
     id="defs1" /><g
     inkscape:label="Layer 1"
     inkscape:groupmode="layer"
     id="layer1"><g
       style="fill:none"
       id="g1"
       transform="matrix(0.69491687,0,0,0.69491687,12.32851,259.27085)"><path
         d="m 114.701,96.6028 c 4.803,0 8.697,3.8932 8.697,8.6962 v 3.291 c 0,6.62 -5.367,11.987 -11.987,11.987 h -1.176 c -11.9084,0 -20.2916,-4.544 -25.1492,-13.632 -7.8348,11.125 -19.6653,16.688 -35.4916,16.688 -10.8772,0 -24.2095,7.84 -24.2095,18.717 v 12.544 c 0,7.009 -5.6826,12.692 -12.6923,12.692 C 5.68256,167.586 0,161.903 0,154.894 V 15.7479 C 0,8.73808 5.68256,3.0555 12.6924,3.0555 c 7.0097,0 12.6923,5.68256 12.6923,12.6924 v 56.8805 c 0,8.6183 2.3504,15.3562 7.0513,20.2137 4.7009,4.7009 11.0471,7.0513 19.0385,7.0513 9.0884,0 16.3747,-2.7421 21.8591,-8.2265 5.4843,-5.641 8.2265,-14.2593 8.2265,-25.8548 V 15.7479 c 0,-7.00983 5.6826,-12.6924 12.6924,-12.6924 7.0095,0 12.6925,5.68256 12.6925,12.6924 v 73.0985 c 0,2.3504 0.705,4.2308 2.115,5.641 1.41,1.4103 3.291,2.1154 5.641,2.1154 z"
         fill="#ffffff"
         id="path1" /><path
         d="m 172.823,70.572 c 0,13.338 10.813,24.1505 24.151,24.1505 h 29.909 c 7.14,0 12.928,5.7875 12.928,12.9275 0,7.139 -5.788,12.927 -12.928,12.927 h -34.081 c -25.962,0 -47.009,-21.0462 -47.009,-47.0084 V 16.5702 c 0,-7.46412 6.051,-13.51502 13.515,-13.51502 7.464,0 13.515,6.05088 13.515,13.51502 z"
         fill="#ffffff"
         id="path2" /><path
         d="m 284.221,72.6284 c -4.993,0 -8.796,4.6761 -6.57,9.1453 2.315,4.6469 5.585,8.4931 9.809,11.5385 6.738,4.7009 14.965,7.0518 24.68,7.0518 9.026,0 16.54,-2.1797 22.544,-6.5382 5.131,-3.7254 12.002,-5.5661 17.477,-2.3673 6.069,3.546 7.956,11.6285 2.87,16.4795 -10.968,10.463 -25.343,15.695 -43.126,15.695 -19.117,0 -34.552,-5.798 -46.304,-17.393 -11.752,-11.7526 -17.628,-26.5603 -17.628,-44.4236 0,-17.5499 5.798,-32.201 17.393,-43.9532 C 276.962,5.95437 291.848,-6.10352e-5 310.024,-6.10352e-5 c 17.237,0 31.339,6.0327810352 42.308,18.0983610352 11.126,12.0656 16.688,26.7166 16.688,43.9531 0,6.0977 -5.469,10.577 -11.567,10.577 z M 274.298,51.9446 H 343.4 c -1.723,-9.5585 -5.719,-16.7665 -11.987,-21.624 -6.111,-4.8576 -13.319,-7.2864 -21.624,-7.2864 -9.401,0 -17.236,2.5855 -23.504,7.7564 -6.268,5.171 -10.264,12.2223 -11.987,21.154 z"
         fill="#ffffff"
         id="path3" /><path
         d="m 483.745,15.7479 c 0,-7.00983 5.683,-12.6924 12.693,-12.6924 7.01,0 12.692,5.68256 12.692,12.6924 v 92.1371 c 0,7.01 -5.682,12.692 -12.692,12.692 -7.01,0 -12.693,-5.682 -12.693,-12.692 v -4.231 c -9.558,13.319 -23.269,19.979 -41.132,19.979 -16.14,0 -29.929,-5.955 -41.368,-17.863 -11.439,-12.066 -17.158,-26.7171 -17.158,-43.9536 0,-17.3932 5.719,-32.0443 17.158,-43.9532 C 412.684,5.95437 426.473,-6.10352e-5 442.613,-6.10352e-5 c 17.863,0 31.574,6.5812110352 41.132,19.7436610352 z m -63.696,73.0985 c 7.051,7.0513 15.904,10.5769 26.559,10.5769 10.656,0 19.509,-3.5256 26.56,-10.5769 7.052,-7.208 10.577,-16.218 10.577,-27.03 0,-10.812 -3.525,-19.7437 -10.577,-26.795 -7.051,-7.208 -15.904,-10.812 -26.56,-10.812 -10.655,0 -19.508,3.604 -26.559,10.812 -7.052,7.0513 -10.577,15.983 -10.577,26.795 0,10.812 3.525,19.822 10.577,27.03 z"
         fill="#ffffff"
         id="path4" /><path
         d="m 564.103,22.7992 c 4.68,-10.6167 12.355,-17.36614 23.023,-20.24822 7.095,-1.916655 13.173,4.34685 13.173,11.69612 0,7.6863 -6.67,13.4583 -14.051,15.6048 -4.071,1.184 -7.848,3.0638 -11.333,5.6396 -7.208,5.171 -10.812,13.7892 -10.812,25.8548 v 46.5387 c 0,7.01 -5.683,12.692 -12.693,12.692 -7.009,0 -12.692,-5.682 -12.692,-12.692 V 15.7479 c 0,-7.00984 5.683,-12.6924 12.692,-12.6924 7.01,0 12.693,5.68256 12.693,12.6924 z"
         fill="#ffffff"
         id="path5" /><path
         d="M 680.872,-6.10352e-5 C 694.347,-6.10352e-5 705.238,4.30907 713.543,12.9273 721.848,21.5456 726,33.3761 726,48.4189 v 59.4661 c 0,7.01 -5.683,12.692 -12.692,12.692 -7.01,0 -12.693,-5.682 -12.693,-12.692 V 51.0044 c 0,-8.775 -2.35,-15.5129 -7.051,-20.2138 -4.701,-4.7008 -11.125,-7.0513 -19.274,-7.0513 -8.931,0 -16.139,2.8206 -21.624,8.4616 -5.484,5.4843 -8.226,13.9459 -8.226,25.3847 v 50.2994 c 0,7.01 -5.683,12.692 -12.692,12.692 -7.01,0 -12.693,-5.682 -12.693,-12.692 V 15.7479 c 0,-7.00984 5.683,-12.6924 12.693,-12.6924 7.009,0 12.692,5.68256 12.692,12.6924 v 2.3504 C 652.118,6.03272 664.262,-6.10352e-5 680.872,-6.10352e-5 Z"
         fill="#ffffff"
         id="path6" /></g></g></svg>
